<svg xmlns="http://www.w3.org/2000/svg" viewBox="0 0 265.02 73.96"><defs><style>.cls-1{fill:#1f4386;}</style></defs><title>idaho-logo</title><g id="Layer_2" data-name="Layer 2"><g id="Layer_1-2" data-name="Layer 1"><g id="Idaho-logo"><path class="cls-1" d="M265,37.13c-.38,1.45-.75,2.9-1.12,4.35a32.12,32.12,0,0,1-28.53,23.81,65.9,65.9,0,0,1-19.59-1.08C205,61.7,197.1,55,194.86,43.61c-2.44-12.47,2.6-22.16,12.8-29.21,12.56-8.67,33-8.78,45.67-.4,6,3.95,9.87,9.36,11,16.56a7.87,7.87,0,0,0,.65,1.61Zm-60.53-2.71c-.13,13.52,12.08,25,26.7,25.22,18,.2,28-16,19.72-32.07-5.42-10.47-18-15.73-30.27-12.63C210.16,17.59,204.58,24.33,204.49,34.42Z"/><path class="cls-1" d="M110.35,0l24.42,63.15,1.26-.31c0-5.82,0-11.65,0-17.48,0-9.92-.21-19.84-.12-29.76,0-2.6-.59-3.95-3.35-4.16-.91-.07-1.76-1-2.63-1.57l.47-.82h20.68l.39.7c-.79.58-1.53,1.57-2.38,1.66-2.27.25-3,1.53-3.05,3.53,0,5.88,0,11.76,0,17.89h33.13c0-6.46.08-12.9-.11-19.33,0-.67-1.54-1.35-2.42-1.93s-1.84-1-2.76-1.49l.41-1H196l.54.68c-1,.65-1.95,1.61-3,1.87-2.11.5-2.83,1.67-2.83,3.72,0,15.65,0,31.31,0,47.1H179.12V36.29L146,37.39V62.67L126,68.59c-1.25-3.48-2.4-6.77-3.64-10-2.5-6.6-5.13-13.16-7.56-19.8-.68-1.86-1.63-2.43-3.62-2.42-10.69.1-10.74,0-14.22,10-2.1,6-4.57,12-5.88,18.13-1.19,5.63-4.65,8-9.81,9.54C90.93,49.35,100.53,24.94,110.35,0Zm-9,33.19h11.14c-1.78-4.79-3.43-9.26-5.39-14.55C105.09,23.84,103.34,28.25,101.39,33.19Z"/><path class="cls-1" d="M31.3,64.7c.05-16.47.1-32.82.18-49.17a3.18,3.18,0,0,0-2.95-3.61c-1.12-.23-2.1-1.17-3.14-1.79l.51-1.29c7.87,0,15.74-.27,23.59.07a213.76,213.76,0,0,1,24.93,2.22c3.87.64,7.81,2.84,11,5.27,9,6.85,10.46,18.57,4.1,29.62-5.65,9.79-14.84,14.51-25.37,17a53.81,53.81,0,0,1-10.84,1.58C45.67,64.87,38,64.7,31.3,64.7ZM42.64,14.42c0,14.25,0,28.15.1,42A3.36,3.36,0,0,0,45,58.81c11.31,1.43,22,0,30.83-8,10.17-9.18,8.86-26-2.52-32C63.72,13.78,53.31,14,42.64,14.42Z"/><path class="cls-1" d="M5.32,73.84V12.52L0,10.22.43,9.09H23.82c-.24,3.88-4,2-5.68,3.95V70Z"/></g></g></g></svg>