<svg xmlns="http://www.w3.org/2000/svg" viewBox="0 0 514.7 79.55"><defs><style>.cls-1{fill:#1f4386;}</style></defs><title>idhw-logo-color-horizontal</title><g id="Layer_2" data-name="Layer 2"><g id="Layer_1-2" data-name="Layer 1"><g id="Idaho_Department_of_Helath_and_Welfare_Logo" data-name="Idaho Department of Helath and Welfare Logo"><path class="cls-1" d="M70.92,79.55c-1.22-1-.85-2.4-.81-3.66s.32-2.77.42-4.16c.12-1.85.17-3.71.24-5.57.16-4,.3-8,.46-12,.14-3.41.31-6.81.46-10.22.16-3.71.29-7.42.46-11.13.13-2.84.35-5.67.44-8.51a7.22,7.22,0,0,0-3.91-6.81c-5.26-3-10.58-6-15.87-9a2.74,2.74,0,0,0-3.44.27c-4.36,3.31-8.74,6.59-13.1,9.9a4.33,4.33,0,0,0-1.94,3.88c.21,3.94.29,7.88.49,11.82.18,3.55.45,7.09.68,10.64l.69,10.87c.22,3.58.46,7.16.68,10.75.17,2.68.36,5.36.44,8,.06,2-.46,2.35-2.4,1.82-1.23-.34-2.42-.8-3.62-1.25a1.7,1.7,0,0,1-1.14-1.89c.07-1,.22-2.11.21-3.16,0-4.3-.1-8.6-.23-12.9-.09-3-.31-6-.44-9a6.11,6.11,0,0,0-4.16-6c-.68-.27-1-.18-1.05.58-.07,1.36-.2,2.72-.22,4.08-.1,7.16-.16,14.32-.24,21.48,0,1.94-.59,2.51-2.49,2.48a8.07,8.07,0,0,1-1.45-.22C18.43,70.4,18,69.7,18.22,68a33.11,33.11,0,0,0,.43-3.69c.19-6.69.5-13.38.4-20.06a39.69,39.69,0,0,0-1.58-8.71c-.37-1.49-1.24-1.72-2.73-1.36-3.68.9-7.36,1.82-11.06,2.63-1.32.28-2.72.29-3.68-1V32.61a57.91,57.91,0,0,0,14.76-7.26c6-4.05,12.1-8.1,18.08-12.25S44.55,4.82,50.39.67a2.68,2.68,0,0,1,3.42-.1Q61.15,5.37,68.63,10c4.78,3,9.57,5.9,14.46,8.66,4.44,2.51,8.92,5,13.55,7.08,7.54,3.42,15.22,6.53,22.85,9.75,1.42.6,2.89,1.07,4.34,1.61,1,.37,1.19,1,.72,2.44-.39,1.18-.78,1.39-1.9,1l-5.82-1.74c-.84-.26-1.48,0-1.66.85a32.07,32.07,0,0,0-.91,5.19c-.25,6.19-.35,12.39-.5,18.58,0,1-.37,1.56-1.43,1.38-.74-.12-1.68-.11-2.14-.56a3.77,3.77,0,0,1-.83-2.18c-.13-1.05,0-2.14,0-3.2q-.18-2.88-.47-5.75c-.07-.79-1.68-2.18-2.35-2a1.84,1.84,0,0,0-1,1.13c-.53,2.07-1,4.14-1.4,6.25-.47,2.73-.77,5.5-1.19,8.25-.13.85-.35,1.35-1.56,1.06-2.75-.65-2.74-.12-2.59-3.24s.58-6.38.87-9.57c.17-1.95.3-3.91.48-5.86.29-3.08.61-6.15.89-9.23a41.7,41.7,0,0,0,.31-4.85c0-.41-.8-1-1.34-1.15-3.18-1-6.39-2-9.59-3-1.26-.38-1.92.08-1.9,1.48,0,2.43.13,4.86.23,7.28Q89,45.39,89.21,51c.14,3.3.31,6.59.45,9.88.16,3.71.33,7.42.45,11.14,0,1.56-.44,1.89-1.88,1.4l-2.68-.88a3.22,3.22,0,0,1-2.38-3.18C83.08,64,83,58.56,83,53.15c0-1.28.18-2.56.2-3.85a2.26,2.26,0,0,0-2.71-2.5,1.88,1.88,0,0,0-1.06,1.38c-.32,2.81-.48,5.63-.74,8.45-.36,3.71-.78,7.42-1.13,11.13-.27,2.89-.42,5.8-.73,8.69a20.52,20.52,0,0,1-.81,3.1Z"/><path class="cls-1" d="M331.74,38.71q-89.9,0-179.79,0c-.5,0-1.46.47-1.47-.46s1-.48,1.45-.48q180,0,359.94,0c.48,0,1.32-.48,1.39.52a2.66,2.66,0,0,1-1.37.42Q421.81,38.72,331.74,38.71Z"/><path class="cls-1" d="M338.57,49.05c.43-.37.68-.76.94-.76q4.19-.07,8.37,0c.26,0,.51.39.87.68a3,3,0,0,1-.5.25c-2.94.4-2.95.55-2.14,3.08,1.68,5.25,3.35,10.5,5.28,15.79.37-1,.77-2.1,1.11-3.16q1.65-5.09,3.27-10.18c.59-1.86,1.17-3.72,1.78-5.57.09-.27.44-.67.58-.64a1.2,1.2,0,0,1,.75.61q2.43,6.48,4.79,13c.75,2,1.46,4.09,2.31,6.45.67-2.22,1.31-4.14,1.84-6.1,1-3.76,1.93-7.54,3-11.3.31-1.11-.07-1.55-1.08-1.72-.52-.09-1-.21-1.6-.33-.22-.54-.17-.89.59-.88,2.37,0,4.74,0,7.11,0,.29,0,.57.34.84.74-2.88.07-3.59,2.1-4.24,4.15Q369.2,63.25,366,73.33c-.11.35-.24.7-.34,1-.93.32-1.26-.12-1.53-.89-2.14-5.89-4.32-11.76-6.49-17.64a5.47,5.47,0,0,0-.33-.61c-.3.78-.53,1.34-.72,1.91l-5.43,16.23c-.17.51-.17,1.13-1,1.11s-.69-.65-.84-1.11q-2-6-3.95-12c-1-3.14-2-6.28-3.08-9.41C341.56,49.83,341.16,49.54,338.57,49.05Z"/><path class="cls-1" d="M169,59.63c0-2.77.09-5.47,0-8.16-.08-1.64-1-2.14-3.24-2.26-.31-.63-.21-1,.6-1,3,0,6,0,9.06,0,.27,0,.53.33.8.51-.25.15-.49.41-.74.44-2.36.23-2.92.84-2.92,3.23,0,5.53,0,11.07,0,16.6,0,3.4.23,3.68,3.56,4.27.26.64,0,.88-.66.88-3.17,0-6.35,0-9.52,0-.66,0-.94-.19-.7-.93l.77-.07c2.46-.33,3-1,3-3.43V61.47H155.3v8.46c0,2.18.51,2.79,2.61,3.28a3.18,3.18,0,0,1,.82.49c-.31.17-.62.47-.93.48-2.94,0-5.89,0-8.83,0-.32,0-.64-.32-.95-.49l.15-.34,1.18-.31c2.09-.51,2.44-.93,2.44-3.09V53c0-3-.59-3.61-3.52-3.82-.25-.54-.27-.93.52-.93,3.1,0,6.19,0,9.29,0,.25,0,.5.39.86.69a3,3,0,0,1-.51.24c-2.47.13-3.13.81-3.13,3.26v7.15Z"/><path class="cls-1" d="M273.81,73.3c2.93-.45,3.29-.87,3.29-3.88V52.14c0-2-.78-2.78-2.77-2.92-.31,0-.59-.34-.89-.52.29-.14.58-.42.88-.42,2.94,0,5.89,0,8.83,0,.3,0,.6.34.9.52a2.82,2.82,0,0,1-.87.43c-1.67.17-2.41.76-2.52,2.69-.14,2.54,0,5.09,0,7.71h13.86c0-2,0-3.92,0-5.88,0-.6-.15-1.2-.16-1.8,0-1.8-.7-2.53-2.48-2.72a3.37,3.37,0,0,1-1-.46c.35-.17.69-.48,1-.49,2.91,0,5.81,0,8.72,0,.67,0,1.06.13.74.91a2.37,2.37,0,0,1-.34.08c-2.38.13-3.17.85-3.19,3.27-.05,5.8-.16,11.6,0,17.39.1,2.76.17,2.81,3.5,3.41.24.59.11.9-.62.9-3.13,0-6.27,0-9.41,0-.23,0-.47-.31-.71-.48.2-.16.37-.4.6-.47.42-.14.88-.16,1.32-.26a2,2,0,0,0,1.72-1.83c.06-3.19,0-6.37,0-9.66H280.62v3.73c0,1.6,0,3.21,0,4.81,0,2,.49,2.55,2.43,3l1.13.29c.22.56.13.89-.61.89-3.06,0-6.12,0-9.18,0-.28,0-.56-.36-.84-.55Z"/><path class="cls-1" d="M475.71,62.87c0,2.79,0,5.53,0,8.26A2,2,0,0,0,477.55,73c.48.09.95.2,1.48.32.22.54.17.9-.59.89-3.06,0-6.11,0-9.17,0-.29,0-.57-.34-.86-.51l.15-.32a5.46,5.46,0,0,1,1.28-.32c1.76,0,2.29-1,2.31-2.86.1-6,.12-11.9,0-17.85,0-2.11-.48-2.82-2.76-3.09-.22,0-.42-.29-.62-.45.22-.17.45-.5.68-.5,3.9,0,7.8-.16,11.69,0,2.21.11,4.37.74,5.73,2.88a6.93,6.93,0,0,1-1.69,9c-.77.54-1.57,1-2.44,1.61,1,1.65,1.85,3.33,2.94,4.84,1.42,2,3,3.88,4.58,5.76.38.46,1.06.66,1.56,1a7.28,7.28,0,0,1,.91,1.11c-3.73,0-6.76-.63-8.6-3.88-1.07-1.91-2.44-3.65-3.38-5.61C479.68,62.9,478,62.46,475.71,62.87Zm0-1.33c.87,0,1.52,0,2.16,0,3.35.25,5.45-1.66,6.13-4.67.53-2.33.09-5.16-2.48-6.63a9,9,0,0,0-4.76-.79c-.81,0-1.06.33-1.06,1.1,0,2.79,0,5.57,0,8.36Z"/><path class="cls-1" d="M501.87,60c2.22-.12,4.27-.17,6.29-.38,1-.11,1.36-1,1.44-1.92.06-.68.23-1.22,1.16-.89v7.56c-.81.55-1-.16-1.11-.65-.59-2.08-.93-2.38-3-2.38h-4.75c0,.91,0,1.73,0,2.55.07,2.31.11,4.62.24,6.93A1.85,1.85,0,0,0,504,72.68a43.8,43.8,0,0,0,6.48-.28c2-.25,2.29-2.18,3.05-3.61.1-.19.1-.46.24-.62a2.8,2.8,0,0,1,.63-.43c.12.2.37.42.34.6-.22,1.4-.43,2.81-.76,4.2-.38,1.67-.43,1.66-2.13,1.66H495.52c-.53,0-1.27.19-1-.86.57-.12,1.15-.25,1.73-.35a2.18,2.18,0,0,0,2.09-2.36c0-6.33,0-12.66,0-19,0-1.72-.79-2.28-3.22-2.44-.24-.93-.24-.94.8-.94,4.71,0,9.41,0,14.11,0,2.72,0,2.63-.54,2.64,2.62,0,.83.19,1.65.18,2.48,0,.25-.37.5-.58.76-.2-.21-.48-.38-.58-.62a11.62,11.62,0,0,1-.27-1.2,3.31,3.31,0,0,0-2.94-2.58c-1.66-.17-3.33-.21-5-.24-1.34,0-1.61.28-1.61,1.59Z"/><path class="cls-1" d="M396.24,48.26c.1,1.8.22,3.42.25,5,0,.35-.32.71-.49,1.06l-.3-.11c-.28-.8-.59-1.59-.82-2.41a2.7,2.7,0,0,0-2.41-2.09c-1.81-.19-3.64-.23-5.46-.25-.67,0-1.46.17-1.48,1,0,3.08,0,6.16,0,9.48,2.23-.12,4.35-.14,6.44-.4.47-.06.92-.89,1.24-1.45a4.79,4.79,0,0,0,.37-1.41h1V64.5l-1,.09c-.13-.45-.28-.83-.36-1.23-.28-1.38-.84-1.93-2.27-2-1.76,0-3.51,0-5.41,0,0,.42-.07.78-.06,1.14.07,2.66.12,5.31.24,8,.06,1.34.74,2.18,1.95,2.22,1.89.06,3.79-.1,5.69-.15s2.76-1.47,3.48-3c.21-.44.28-.94.53-1.36.13-.23.49-.33.75-.49.13.27.43.58.38.81-.33,1.65-.69,3.3-1.14,4.92a1.23,1.23,0,0,1-.94.7c-5.77,0-11.54,0-17.32,0-.63,0-1-.15-.71-.92.23,0,.49,0,.74-.09,2.55-.56,3-1.08,3-4,.05-5.41,0-10.83,0-16.24a9.56,9.56,0,0,0-.27-2.13c-.28-1.12-1.22-1.44-2.23-1.59a6.8,6.8,0,0,0-1,0l-.23-.3c.23-.23.46-.66.69-.66C384.82,48.25,390.47,48.26,396.24,48.26Z"/><path class="cls-1" d="M180.61,49.2c-.39-1,.26-.94.86-.94H198.3c-.53,2.06.85,4.11-.26,6h-.43c-.28-.83-.58-1.66-.84-2.51a2.8,2.8,0,0,0-2.6-2,45.24,45.24,0,0,0-5.46-.22c-.43,0-1.2.62-1.22,1-.09,3.08-.05,6.17-.05,9.33,1.77,0,3.47,0,5.17,0a2.73,2.73,0,0,0,1.6-.33,5.47,5.47,0,0,0,1-1.69c.23-.49.12-1.33,1.21-.92,0,2.36,0,4.76,0,7.15,0,.19-.26.37-.4.55-.19-.16-.5-.3-.55-.5-.51-2.13-.44-2.73-3.85-2.69h-4.23c.12,3.31.16,6.49.38,9.66a1.93,1.93,0,0,0,2.11,1.69c1.9,0,3.8-.1,5.69-.2,1.68-.09,2.49-1.24,3.09-2.62a18.1,18.1,0,0,1,.73-1.76c.12-.22.54-.27.83-.4.08.26.28.53.23.76-.31,1.61-.69,3.22-1,4.83a.94.94,0,0,1-1.09.87c-5.81,0-11.62,0-17.43,0-.61,0-1-.1-.75-.88.59-.11,1.21-.24,1.84-.34a2.07,2.07,0,0,0,2-2.19c.08-5.63.17-11.26.22-16.89a15.75,15.75,0,0,0-.27-2.82C183.64,49.76,182.83,49.32,180.61,49.2Z"/><path class="cls-1" d="M214.6,47.71,220,62.37l2.88,7.82c.68,1.83,1.75,3.16,4,3l.11.34c-.25.21-.5.6-.76.6-3,0-6,0-9.48,0,.35-.48.53-.74.74-1,.07-.07.22-.07.32-.1,2.22-.61,2.24-.62,1.44-2.88-.69-1.94-1.45-3.86-2.21-5.88-2.47,0-5,0-7.43,0-.3,0-.75.46-.87.79-.65,1.8-1.24,3.62-1.83,5.44s-.34,2,1.39,2.39c.41.08.8.19,1.28.31.18.5.2.89-.58.88-2.64,0-5.27,0-8.28,0,.28-.46.43-.94.61-1,2.36-.18,3.13-1.94,3.83-3.76,2.64-6.86,5.27-13.73,7.94-20.58a6.67,6.67,0,0,1,1.09-1.44Zm-1.42,5.85-.38,0c-1.05,3-2.09,5.94-3.16,9h6.78Z"/><path class="cls-1" d="M450.33,73.59c-.27.2-.52.58-.79.58-2.63,0-5.27,0-8.27,0,.27-.45.42-.94.59-1,2.79-.22,3.36-2.49,4.14-4.48,2.36-6,4.65-12,7-17.94a23.2,23.2,0,0,1,.87-2.19A8.75,8.75,0,0,1,455,47.29c.79,2.06,1.5,3.82,2.15,5.6,2.09,5.7,4.14,11.42,6.24,17.12.59,1.58,1.43,3,3.39,3.2.25,0,.46.4.69.61-.27.13-.54.36-.81.36-2.68,0-5.35,0-8,0-.28,0-.56-.3-.84-.46.25-.22.47-.56.76-.65,2-.61,2-.6,1.31-2.68-.63-1.81-1.31-3.6-2-5.37a1.15,1.15,0,0,0-.83-.63q-3.33-.09-6.65,0a1.22,1.22,0,0,0-.93.59c-.75,2-1.5,4.09-2.1,6.18-.35,1.22.05,1.62,1.33,1.84.48.08.95.2,1.43.3Zm3.4-20.1-.3-.07c-1.07,3-2.15,6.06-3.25,9.17H457Z"/><path class="cls-1" d="M430.26,60.47c2.27-.12,4.39-.15,6.49-.35a1.75,1.75,0,0,0,1.49-1.76c.07-.56,0-1.41,1.2-1,0,2.38,0,4.77,0,7.17,0,.18-.26.37-.4.55-.19-.17-.51-.31-.55-.5-.51-2.46-.56-2.72-3.78-2.69h-4.37c0,.47-.06.87-.06,1.27v6.3c0,2.85.48,3.4,3.27,3.82a2.69,2.69,0,0,1,.85.45c-.3.17-.61.49-.91.5-3.1,0-6.19,0-9.29,0-.32,0-.65-.3-1.08-.52.31-.3.36-.39.42-.4,2.76-.41,3.23-1,3.23-3.74q0-8.46,0-16.93a5.77,5.77,0,0,0,0-1c-.36-1.86-.84-2.21-3.25-2.38-.25-.53-.28-.93.51-.93,5.35,0,10.71,0,16.06,0a1.07,1.07,0,0,1,.75.71,41.86,41.86,0,0,1,.24,4.19c0,.37-.35.74-.54,1.11l-.33-.14c-.27-.82-.51-1.64-.82-2.44a2.88,2.88,0,0,0-2.52-2c-1.77-.16-3.56-.22-5.34-.25-.81,0-1.26.33-1.24,1.32C430.3,53.94,430.26,57.06,430.26,60.47Z"/><path class="cls-1" d="M256.91,49.33a37,37,0,0,0-5.73.75c-.8.23-1.38,1.37-2,2.17-.27.38-.26,1-.5,1.36a3.77,3.77,0,0,1-.88.8l-.36-.23c.15-1.93.3-3.86.45-5.85h21.61c.13,2,.25,3.87.37,5.78-.72.37-1,.11-1.2-.52a14.16,14.16,0,0,0-.54-1.71,3.34,3.34,0,0,0-3.26-2.18c-1.43-.07-2.86-.2-4.48-.31v19.8c0,3.13.54,3.72,3.67,4l.55.05c.28.67.11.95-.6.95-3.44,0-6.88,0-10.33,0-.23,0-.46-.32-.7-.48.2-.16.38-.42.6-.47,3.22-.73,3.3-.81,3.3-4.1V49.33Z"/><path class="cls-1" d="M412.66,49.25c-.26,0-.53,0-.78,0-1.81.13-2.71,1-2.72,2.78q0,9,0,18c0,1.91.79,2.69,2.68,2.73a42,42,0,0,0,4.89-.22,2.81,2.81,0,0,0,2.38-1.69c.39-.86.74-1.73,1.19-2.56.13-.24.51-.35.78-.52.11.26.36.55.32.78-.31,1.66-.64,3.31-1.06,4.94a1.24,1.24,0,0,1-.93.71q-8.37.06-16.75,0c-.27,0-.54-.36-.81-.56l.18-.31.54-.09c2.68-.44,3.06-.9,3.06-3.63V52.42c0-2.38-.57-3-3-3.19-.25,0-.47-.32-.7-.48.24-.17.48-.47.72-.47,3.13,0,6.27,0,9.4,0,.28,0,.55.36.83.55Z"/><path class="cls-1" d="M239.38,49.25c-.33,0-.59,0-.86,0-1.85.17-2.64.94-2.65,2.81q0,9,0,18.08c0,1.6.49,2.28,2.16,2.49a26.41,26.41,0,0,0,4.79,0c2.46-.11,3.18-2.07,4-3.91.09-.21.1-.49.24-.62a1.26,1.26,0,0,1,.79-.35c.13,0,.38.47.34.68q-.51,2.48-1.1,4.92a1,1,0,0,1-1.11.84c-5.47,0-10.94,0-16.41,0-.32,0-.65-.31-1-.47l.14-.37c.5-.11,1-.25,1.5-.35a2.19,2.19,0,0,0,2.12-2.44q0-9.33,0-18.65c0-1.75-.89-2.55-2.67-2.67a3.26,3.26,0,0,1-1-.43c.34-.18.67-.51,1-.52,3,0,6,0,9,0C239.28,48.25,239.74,48.33,239.38,49.25Z"/><path class="cls-1" d="M321.54,59.7l4,3.52a26.94,26.94,0,0,0,1.33-2.62c.09-.24-.3-.74-.59-1s-.59-.12-.9-.17l0-.27h5.21l.13.26c-2.79.3-3.3,2.76-4.59,4.32l4.11,5.32c-2.78.09-3.94-1.7-5.12-3.35a32.74,32.74,0,0,1-2.93,2.61A4.55,4.55,0,0,1,316,67a4.08,4.08,0,0,1,1.45-5.66c.47-.31,1-.58,1.54-.93-.39-.45-.72-.87-1.1-1.25a3,3,0,0,1-.43-3.66,3.28,3.28,0,0,1,3.26-2,3.08,3.08,0,0,1,3,1.38,2.7,2.7,0,0,1-.77,4C322.48,59.14,322,59.4,321.54,59.7Zm-1.39,7.79A5.27,5.27,0,0,0,324,65.34a.94.94,0,0,0-.18-.87c-1.13-1.12-2.31-2.19-3.5-3.24a1,1,0,0,0-.82-.2c-1.3.39-2.42,2.5-2.17,4A3.79,3.79,0,0,0,320.15,67.49Zm.48-8.29c1.27-.31,1.49-1.37,1.8-2.3.25-.75-.44-2.37-1.14-2.48a2.84,2.84,0,0,0-2,.39,2,2,0,0,0-.32,2.66A20.35,20.35,0,0,0,320.63,59.2Z"/><path class="cls-1" d="M17.4,14.58c-.38-.27-1-.52-1.3-1A7.91,7.91,0,0,1,15,11.14c-.33-1.39,0-2.17,1.42-2.87q3.88-2,7.87-3.76A1.51,1.51,0,0,1,25.71,5,13.88,13.88,0,0,1,27,8.14a1.83,1.83,0,0,1-1,2.12c-2.29,1.33-4.59,2.62-6.91,3.89A8,8,0,0,1,17.4,14.58Z"/><path class="cls-1" d="M397.75,19.62q-1,3.09-1.91,6.17c-.35,1.11-.66,2.24-1.06,3.32-.14.35-.53.6-.8.9-.32-.36-.79-.66-.92-1.07-.83-2.57-1.58-5.17-2.36-7.75a1.55,1.55,0,0,0-.57-.85v9.59h-1.4V17.75c1.88-.45,2-.4,2.6,1.37.86,2.66,1.7,5.33,2.65,8.33.92-3,1.72-5.61,2.57-8.24.57-1.8.6-1.79,2.64-1.53V29.93l-1.14.09V19.66Z"/><path class="cls-1" d="M441,26.57V17.65l1.17-.06V29.85c-.81.48-1.23-.05-1.55-.62-1.42-2.49-2.8-5-4.2-7.49-.41-.72-.84-1.42-1.44-2.42V29.93l-1.24.07V17.79c1.46-.48,1.83-.32,2.59,1,1.46,2.59,2.94,5.17,4.41,7.76Z"/><path class="cls-1" d="M349.48,24.52v5.42h-1.39V17.46c2,.14,3.83.22,5.69.45a2.62,2.62,0,0,1,2.32,2.33,3.25,3.25,0,0,1-1.47,3.55c-.25.16-.52.29-.82.45.84,1.9,1.65,3.74,2.49,5.62-1.13.44-1.72,0-2.09-1s-.91-2-1.28-3a1.77,1.77,0,0,0-2.22-1.34A8.07,8.07,0,0,1,349.48,24.52Zm.07-5.82v4.68a36.62,36.62,0,0,0,3.78-.38,1.74,1.74,0,0,0,1.36-1.85,1.77,1.77,0,0,0-1.29-2A32.83,32.83,0,0,0,349.55,18.7Z"/><path class="cls-1" d="M168.17,17.56c2.87.15,6-.64,7.83,2.27a7.07,7.07,0,0,1,.07,7.85c-1.85,3-5,2.23-7.9,2.33Zm1.43,11.1c2.42.42,4.48-.24,5.35-1.69a7.51,7.51,0,0,0-.16-6.61c-.83-1.21-3.7-1.89-5.19-1.37Z"/><path class="cls-1" d="M266,17.58c2.83.06,5.88-.54,7.68,2.19a7.14,7.14,0,0,1,0,8.07C271.83,30.6,268.78,30,266,30Zm1.41,11.16c2.13.16,4.07.12,5.29-1.87.85-1.36.75-5.16-.16-6.32-1.32-1.67-3.13-1.86-5.13-1.7Z"/><path class="cls-1" d="M86.69,8.92a7,7,0,0,1-.06,1c-.57,2.57-1.16,2.9-3.59,1.92C82,11.45,81,11,80,10.45c-2.12-1.09-2.44-3.17-.78-4.83s1.69-1.68,3.77-.56a16.44,16.44,0,0,1,3,1.87,6,6,0,0,1,1,1.87Z"/><path class="cls-1" d="M485.23,24c.13-2.1.31-3.91,1.8-5.32a4.63,4.63,0,0,1,7.25,1.51,10.21,10.21,0,0,1,.15,7.08,4.62,4.62,0,0,1-8.9-.92C485.36,25.47,485.31,24.6,485.23,24Zm1.37-.5c.16,1.19.22,2,.4,2.82A3.22,3.22,0,0,0,490.07,29a3.31,3.31,0,0,0,3-2.43,8.65,8.65,0,0,0,0-5.64,3.19,3.19,0,0,0-2.59-2.08c-1.4-.06-2.59.26-3.07,1.75C487.05,21.6,486.81,22.69,486.6,23.46Z"/><path class="cls-1" d="M230.53,24a8,8,0,0,1,1.14-4.75c1.31-2.23,6.21-2.46,7.59.46a9.71,9.71,0,0,1,.11,8.1,4.67,4.67,0,0,1-4.09,2.44A4.42,4.42,0,0,1,231,27a9.46,9.46,0,0,1-.44-1.64A9.16,9.16,0,0,1,230.53,24Zm1.27-.2a28,28,0,0,0,.65,3.08,2.65,2.65,0,0,0,2.61,2,2.7,2.7,0,0,0,2.75-1.3,7.68,7.68,0,0,0,.22-7.14,3,3,0,0,0-5.62.49C232.16,21.83,232,22.79,231.8,23.79Z"/><path class="cls-1" d="M209.45,29.91V17.68h1.39v5.09h5.62V17.66h1.43V29.93h-1.34V24.16H210.9v5.75Z"/><path class="cls-1" d="M330,17.58a11.4,11.4,0,0,1,1.56,0,1,1,0,0,1,.66.47c1.22,3.89,2.4,7.8,3.59,11.71,0,0,0,.07,0,.17h-1.42c-.37-1.21-.75-2.46-1.16-3.77h-4.28a25,25,0,0,0-.77,2.55c-.2,1.07-.66,1.57-1.92,1.14C327.47,25.82,328.72,21.76,330,17.58Zm1.21,1.56h-.33l-1.61,5.7h3.51C332.23,22.85,331.72,21,331.21,19.14Z"/><path class="cls-1" d="M189.2,29.94h-1.44c.24-.84.43-1.59.65-2.33.91-3,1.91-5.92,2.71-8.92.39-1.47,1.37-1.06,2.44-1.09l3.77,12.24c-.94.33-1.6.3-1.76-.82,0-.07-.07-.13-.1-.2-.32-.88-.42-2.28-1-2.51a8.86,8.86,0,0,0-3.61-.14c-.26,0-.61.48-.73.81C189.77,28,189.5,29,189.2,29.94Zm3.46-10.88-.31.05-1.54,5.73h3.49C193.73,22.84,193.2,21,192.66,19.06Z"/><path class="cls-1" d="M413.06,17.63h7.25l.08,1.11h-5.86v4h4.17l.08,1.27h-4.27v4.72h6.25c0,.44.06.76.09,1.16h-7.79Z"/><path class="cls-1" d="M295.26,28.77v1.16h-7.74V17.67h7.24l.1,1.11H289v4h4.2c0,.45.05.8.09,1.27H289v4.72Z"/><path class="cls-1" d="M309.29,24.66v5.27h-1.35V17.45a55.45,55.45,0,0,1,6,.52c1.55.29,2.15,1.62,2.06,3.59a2.82,2.82,0,0,1-2.36,2.69C312.24,24.49,310.83,24.52,309.29,24.66Zm.08-1.37a28.64,28.64,0,0,0,3.22,0,2,2,0,0,0,1.9-1.78,1.87,1.87,0,0,0-1.06-2.26,8.38,8.38,0,0,0-4.06-.36Z"/><path class="cls-1" d="M506.24,17.63h7.25l.08,1.12h-5.86v4h4.15v1.28h-4.22V30l-1.4.06Z"/><path class="cls-1" d="M113.8,24.75a12.23,12.23,0,0,1-.86,2c-.48.73-1.19,1.25-2.12.7a18.54,18.54,0,0,1-3.6-2.3c-1.24-1.18-.37-3,.86-3.55,1.81-.83,5,.62,5.55,2.52C113.68,24.34,113.73,24.52,113.8,24.75Z"/><path class="cls-1" d="M458,18.81h-3.65l-.06-1.16H463l.08,1.1h-3.62V29.93H458Z"/><path class="cls-1" d="M371.25,18.81H367.6l-.06-1.16h8.7l.09,1.1h-3.62V29.93h-1.46Z"/><path class="cls-1" d="M155.24,29.94h-1.32V17.65h1.32Z"/><path class="cls-1" d="M58.22,61.08c0,2.55,0,5.11,0,7.66.05,3,.12,6,.24,9,0,1-.33,1.29-1.25,1.28-1.91,0-3.82,0-5.73,0C49.83,79,49,78.27,49,76.6c0-4.1.1-8.21.22-12.31.09-2.91.29-5.82.44-8.73.08-1.51.14-3,.24-4.53.08-1.18,1.65-2.46,3.19-2.78,2.5-.51,4,1,5,2.48a2.17,2.17,0,0,1,.18,1.09Q58.22,56.44,58.22,61.08Z"/><path class="cls-1" d="M54.25,36.39V33.76c0-.72.26-1.18,1.08-1.07l4.68.65A1,1,0,0,1,61,34.73c-.33,1.49-.8,3-1.09,4.46-.25,1.28-1.15,1.45-2.16,1.48-.6,0-1.2-.1-1.81-.12-1.17,0-1.62-.46-1.64-1.65C54.23,38.06,54.25,37.22,54.25,36.39Z"/></g></g></g></svg>